<svg width="100" height="100" viewBox="0 0 100 100" fill="none" xmlns="http://www.w3.org/2000/svg">
<g clip-path="url(#clip0_22_2)">
<rect width="100" height="100" rx="20" fill="white"/>
<path d="M36.5001 66.5002C31.3001 65.7002 19.0001 71.1669 13.5001 74.0002C6.50013 81.5002 9.50013 96 18.0001 87C26.5001 78 47.5001 85 58.0001 85C72.0001 81.4 80.1668 69.8333 82.5001 64.5C74.0001 67.1667 57.2001 71.3 58.0001 66.5002C58.0001 64.0002 43.0001 67.5002 36.5001 66.5002Z" fill="#A49DFF"/>
<path fill-rule="evenodd" clip-rule="evenodd" d="M62.7031 70.7926C62.3149 72.2801 61.1635 73.4772 59.6486 73.9038C53.48 75.6367 45.5367 77.8693 45.5367 77.8693C44.6801 78.1096 43.7886 77.6099 43.5472 76.7533C43.3069 75.8967 43.8066 75.0052 44.6632 74.7638C44.6632 74.7638 52.6078 72.5312 58.7751 70.7982C59.24 70.6671 59.5749 70.262 59.6155 69.7815C59.6567 69.3003 59.395 68.8442 58.9591 68.637L58.955 68.6347C57.1914 67.7966 55.2188 67.503 53.2873 67.7914C52.2352 67.9487 51.0484 68.1257 49.8818 68.2998C45.7252 68.9208 41.4771 68.3253 37.6508 66.5866C35.2453 65.4927 32.4764 65.5344 30.1038 66.6992C24.0733 69.6608 14.0225 74.5973 14.0225 74.5973C13.2233 74.9896 12.2564 74.6588 11.8642 73.8602C11.4713 73.0611 11.8015 72.0942 12.6006 71.7019C12.6006 71.7019 22.6512 66.7653 28.682 63.8039C31.9204 62.2131 35.7014 62.1574 38.9857 63.6501C42.2461 65.1323 45.8647 65.6384 49.4061 65.1108C50.5714 64.9361 51.7594 64.7591 52.8116 64.6019C55.3769 64.2194 57.9983 64.6094 60.34 65.7231C60.34 65.7231 60.3424 65.7237 60.3441 65.7248C61.1932 66.1288 61.8681 66.7811 62.3017 67.5674L80.784 62.8914C82.4891 62.4597 84.2644 63.2762 85.0466 64.8518C85.8284 66.427 85.4065 68.3345 84.0316 69.4326C78.7323 73.6657 71.7397 79.2517 66.5982 83.3588C61.8038 87.1885 55.6521 88.8901 49.5704 88.0701C45.6467 87.5414 41.0955 86.9268 37.4207 86.4306C33.3768 85.8851 29.2777 86.9181 25.9755 89.3156C24.4259 90.4409 23.1643 91.3567 23.1643 91.3567C22.444 91.8796 21.4341 91.7194 20.9119 90.9992C20.389 90.2784 20.5486 89.2691 21.2694 88.7463C21.2694 88.7463 22.5305 87.8304 24.0801 86.7058C28.0538 83.8208 32.9868 82.5771 37.8525 83.2347C41.5267 83.7297 46.0779 84.3443 50.0022 84.8742C55.2098 85.577 60.4789 84.1186 64.5842 80.8384C69.7255 76.7317 76.7183 71.1453 82.0176 66.9122C82.2056 66.7625 82.2631 66.5019 82.1569 66.2872C82.0495 66.0713 81.8069 65.9598 81.5736 66.0185L62.7021 70.7931L62.7031 70.7926ZM46.7124 19.9752V18.7814C46.7124 17.3891 47.2649 16.0548 48.2486 15.0711C49.2329 14.0868 50.5677 13.5337 51.9589 13.5337H52.043C53.4341 13.5337 54.7696 14.0862 55.7533 15.0711C56.7376 16.0548 57.2907 17.3891 57.2907 18.7814V19.9752C74.0778 22.4476 87.0956 36.5112 87.9484 53.7752H90.7527C91.643 53.7752 92.3655 54.4977 92.3655 55.3879C92.3655 56.2776 91.6429 57.0007 90.7527 57.0007H13.2504C12.3602 57.0007 11.6377 56.2775 11.6377 55.3879C11.6377 54.4977 12.3602 53.7752 13.2504 53.7752H16.0547C16.9084 36.5112 29.9258 22.4474 46.7139 19.9752H46.7124ZM84.7184 53.7752C83.7817 36.5201 69.4928 22.8159 52.0015 22.8159C34.5102 22.8159 20.2206 36.521 19.2846 53.7752H84.7184ZM54.0652 19.6483V18.7819C54.0652 18.2456 53.8516 17.7314 53.4726 17.3519C53.0937 16.9729 52.5795 16.7605 52.0432 16.7605H51.9591C51.4234 16.7605 50.9086 16.9729 50.5296 17.3519C50.1507 17.7314 49.9371 18.2456 49.9371 18.7819V19.6483C50.6208 19.6094 51.3085 19.5897 52.0009 19.5897C52.6938 19.5897 53.382 19.6094 54.0652 19.6483Z" fill="black"/>
<path d="M36.5309 38.3274C35.7956 37.1827 36.5545 35.708 37.8969 35.673L49.8461 35.362C51.1886 35.327 52.1077 36.758 51.5005 37.9377L46.0962 48.4391C45.489 49.6188 43.811 49.6625 43.0757 48.5177L36.5309 38.3274Z" fill="url(#paint0_angular_22_2)"/>
<path d="M45.332 28.2084C43.8747 27.361 42.0635 28.4387 42.0718 30.1482L42.1571 47.5599C42.1655 49.2694 43.9871 50.3286 45.436 49.4665L60.194 40.6854C61.6429 39.8233 61.6325 37.6864 60.1751 36.8391L45.332 28.2084Z" fill="url(#paint1_angular_22_2)" stroke="white" stroke-width="0.5"/>
<path d="M55.626 26.645C54.7305 25.0649 52.492 25.0649 51.5966 26.645L40.1247 46.8886C39.2293 48.4686 40.3486 50.4437 42.1394 50.4437H65.0831C66.8739 50.4437 67.9932 48.4686 67.0978 46.8886L55.626 26.645Z" fill="url(#paint2_angular_22_2)" stroke="white" stroke-width="0.5"/>
</g>
<defs>
<radialGradient id="paint0_angular_22_2" cx="0" cy="0" r="1" gradientUnits="userSpaceOnUse" gradientTransform="translate(44.1578 40.7095) rotate(28.1101) scale(10.5224 10.2647)">
<stop offset="0.435554" stop-color="#AAA4FF"/>
<stop offset="0.574582" stop-color="#9991FF"/>
</radialGradient>
<radialGradient id="paint1_angular_22_2" cx="0" cy="0" r="1" gradientUnits="userSpaceOnUse" gradientTransform="translate(43.4862 41.0136) rotate(-47.3626) scale(10.8647 10.8499)">
<stop offset="0.872025" stop-color="#9992FF"/>
<stop offset="0.977096" stop-color="#7F76FF"/>
</radialGradient>
<radialGradient id="paint2_angular_22_2" cx="0" cy="0" r="1" gradientUnits="userSpaceOnUse" gradientTransform="translate(38.7424 49.2087) rotate(32.1182) scale(33.4955 33.7726)">
<stop offset="0.740926" stop-color="#7F76FF"/>
<stop offset="0.783397" stop-color="#6C62FF"/>
<stop offset="0.84375" stop-color="#584CFF"/>
</radialGradient>
<clipPath id="clip0_22_2">
<rect width="100" height="100" rx="20" fill="white"/>
</clipPath>
</defs>
</svg>
